<svg width="210" height="201" viewBox="0 0 210 201" fill="none" xmlns="http://www.w3.org/2000/svg">
<ellipse cx="105" cy="100.5" rx="105" ry="100.5" fill="#363636" fill-opacity="0.46"/>
<ellipse cx="105" cy="100.5" rx="105" ry="100.5" fill="#6E6E6E"/>
<path d="M105 201C162.99 201 210 156.005 210 100.5H0C0 156.005 47.0101 201 105 201Z" fill="#999999"/>
<path d="M104.5 25C89.8873 25 78 36.8873 78 51.5C78 66.1127 89.8873 78 104.5 78C119.113 78 131 66.1127 131 51.5C131 36.8873 119.113 25 104.5 25Z" fill="#BBBBBB"/>
<path d="M116.094 53.7084H106.708V63.0939C106.708 64.3131 105.719 65.3021 104.5 65.3021C103.281 65.3021 102.292 64.3131 102.292 63.0939V53.7084H92.9064C91.6873 53.7084 90.6982 52.7193 90.6982 51.5002C90.6982 50.2811 91.6873 49.292 92.9064 49.292H102.292V39.9064C102.292 38.6873 103.281 37.6982 104.5 37.6982C105.719 37.6982 106.708 38.6873 106.708 39.9064V49.292H116.094C117.313 49.292 118.302 50.2811 118.302 51.5002C118.302 52.7193 117.313 53.7084 116.094 53.7084Z" fill="#FAFAFA"/>
<path d="M54.7637 123.318C54.7637 124.51 54.3242 125.454 53.4453 126.15C52.5729 126.847 51.4108 127.195 49.959 127.195C48.2142 127.195 46.8763 127.003 45.9453 126.619V125.623C46.974 126.059 48.2858 126.277 49.8809 126.277C51.0527 126.277 51.9805 126.01 52.6641 125.477C53.3542 124.936 53.6992 124.23 53.6992 123.357C53.6992 122.817 53.5853 122.371 53.3574 122.02C53.1296 121.661 52.7585 121.336 52.2441 121.043C51.7298 120.75 50.9746 120.434 49.9785 120.096C48.5202 119.594 47.5111 119.054 46.9512 118.475C46.3978 117.889 46.1211 117.111 46.1211 116.141C46.1211 115.073 46.5378 114.204 47.3711 113.533C48.2109 112.856 49.2884 112.518 50.6035 112.518C51.9447 112.518 53.2044 112.771 54.3828 113.279L54.0215 114.139C52.8366 113.644 51.7038 113.396 50.623 113.396C49.5684 113.396 48.7285 113.641 48.1035 114.129C47.4785 114.617 47.166 115.281 47.166 116.121C47.166 116.648 47.2604 117.081 47.4492 117.42C47.6445 117.758 47.9603 118.064 48.3965 118.338C48.8327 118.605 49.5814 118.927 50.6426 119.305C51.7559 119.689 52.5924 120.063 53.1523 120.428C53.7122 120.786 54.1191 121.196 54.373 121.658C54.6335 122.114 54.7637 122.667 54.7637 123.318ZM58.377 116.385V123.26C58.377 124.327 58.6016 125.105 59.0508 125.594C59.5 126.076 60.1966 126.316 61.1406 126.316C62.4036 126.316 63.3314 125.997 63.9238 125.359C64.5228 124.721 64.8223 123.683 64.8223 122.244V116.385H65.7793V127H64.959L64.7832 125.535H64.7246C64.0345 126.642 62.8073 127.195 61.043 127.195C58.6276 127.195 57.4199 125.903 57.4199 123.318V116.385H58.377ZM73.8164 116.18C75.3008 116.18 76.4173 116.648 77.166 117.586C77.9212 118.517 78.2988 119.881 78.2988 121.678C78.2988 123.442 77.9017 124.803 77.1074 125.76C76.3197 126.717 75.2096 127.195 73.7773 127.195C73.0221 127.195 72.3418 127.039 71.7363 126.727C71.1309 126.414 70.6523 125.971 70.3008 125.398H70.2129L69.9395 127H69.334V111.805H70.3008V115.623C70.3008 116.196 70.2878 116.723 70.2617 117.205L70.2324 118.035H70.3008C70.7044 117.397 71.1895 116.928 71.7559 116.629C72.3288 116.329 73.0156 116.18 73.8164 116.18ZM73.7969 117.059C72.5469 117.059 71.6517 117.417 71.1113 118.133C70.571 118.849 70.3008 120.031 70.3008 121.678V121.844C70.3008 123.445 70.5807 124.594 71.1406 125.291C71.707 125.988 72.5859 126.336 73.7773 126.336C74.9362 126.336 75.8086 125.932 76.3945 125.125C76.9805 124.311 77.2734 123.156 77.2734 121.658C77.2734 118.592 76.1146 117.059 73.7969 117.059ZM85.5352 127.195C83.9922 127.195 82.7878 126.72 81.9219 125.77C81.0625 124.819 80.6328 123.488 80.6328 121.775C80.6328 120.083 81.0495 118.729 81.8828 117.713C82.7161 116.691 83.8392 116.18 85.252 116.18C86.502 116.18 87.4883 116.616 88.2109 117.488C88.9336 118.361 89.2949 119.546 89.2949 121.043V121.824H81.6484C81.6615 123.283 82 124.396 82.6641 125.164C83.3346 125.932 84.2917 126.316 85.5352 126.316C86.1406 126.316 86.6712 126.274 87.127 126.189C87.5892 126.105 88.1719 125.923 88.875 125.643V126.521C88.276 126.782 87.7227 126.958 87.2148 127.049C86.707 127.146 86.1471 127.195 85.5352 127.195ZM85.252 117.039C84.2298 117.039 83.4095 117.378 82.791 118.055C82.1725 118.725 81.8112 119.695 81.707 120.965H88.2695C88.2695 119.734 88.0026 118.774 87.4688 118.084C86.9349 117.387 86.196 117.039 85.252 117.039ZM103.865 127L103.621 125.32H103.543C103.009 126.004 102.459 126.489 101.893 126.775C101.333 127.055 100.669 127.195 99.9004 127.195C98.8587 127.195 98.0482 126.928 97.4688 126.395C96.8893 125.861 96.5996 125.122 96.5996 124.178C96.5996 123.143 97.0293 122.339 97.8887 121.766C98.7546 121.193 100.005 120.89 101.639 120.857L103.66 120.799V120.096C103.66 119.087 103.455 118.325 103.045 117.811C102.635 117.296 101.974 117.039 101.062 117.039C100.079 117.039 99.0605 117.312 98.0059 117.859L97.6445 117.02C98.8099 116.473 99.9622 116.199 101.102 116.199C102.267 116.199 103.136 116.502 103.709 117.107C104.288 117.713 104.578 118.657 104.578 119.939V127H103.865ZM99.959 126.316C101.092 126.316 101.984 125.994 102.635 125.35C103.292 124.699 103.621 123.797 103.621 122.645V121.6L101.766 121.678C100.275 121.749 99.2103 121.984 98.5723 122.381C97.9408 122.771 97.625 123.383 97.625 124.217C97.625 124.881 97.8268 125.398 98.2305 125.77C98.6406 126.134 99.2168 126.316 99.959 126.316ZM111.805 127.195C110.411 127.195 109.331 126.733 108.562 125.809C107.794 124.884 107.41 123.549 107.41 121.805C107.41 120.014 107.794 118.631 108.562 117.654C109.331 116.671 110.431 116.18 111.863 116.18C113.4 116.18 114.549 116.746 115.311 117.879H115.369L115.545 116.385H116.365V131.805H115.408V127.762C115.408 126.967 115.428 126.16 115.467 125.34H115.408C114.64 126.577 113.439 127.195 111.805 127.195ZM111.824 126.336C113.113 126.336 114.031 125.981 114.578 125.271C115.132 124.562 115.408 123.37 115.408 121.697V121.58C115.408 119.985 115.132 118.833 114.578 118.123C114.025 117.413 113.143 117.059 111.932 117.059C110.786 117.059 109.913 117.462 109.314 118.27C108.722 119.077 108.426 120.262 108.426 121.824C108.426 123.315 108.715 124.441 109.295 125.203C109.881 125.958 110.724 126.336 111.824 126.336ZM120.779 116.385V123.26C120.779 124.327 121.004 125.105 121.453 125.594C121.902 126.076 122.599 126.316 123.543 126.316C124.806 126.316 125.734 125.997 126.326 125.359C126.925 124.721 127.225 123.683 127.225 122.244V116.385H128.182V127H127.361L127.186 125.535H127.127C126.437 126.642 125.21 127.195 123.445 127.195C121.03 127.195 119.822 125.903 119.822 123.318V116.385H120.779ZM132.703 127H131.736V116.385H132.703V127ZM131.004 114.725C131.479 114.21 131.948 113.654 132.41 113.055C132.879 112.449 133.198 111.99 133.367 111.678H134.744V111.844C134.51 112.182 134.109 112.632 133.543 113.191C132.983 113.751 132.365 114.314 131.688 114.881H131.004V114.725ZM142.43 127H141.463V111.805H142.43V127ZM152.439 127L152.195 125.32H152.117C151.583 126.004 151.033 126.489 150.467 126.775C149.907 127.055 149.243 127.195 148.475 127.195C147.433 127.195 146.622 126.928 146.043 126.395C145.464 125.861 145.174 125.122 145.174 124.178C145.174 123.143 145.604 122.339 146.463 121.766C147.329 121.193 148.579 120.89 150.213 120.857L152.234 120.799V120.096C152.234 119.087 152.029 118.325 151.619 117.811C151.209 117.296 150.548 117.039 149.637 117.039C148.654 117.039 147.635 117.312 146.58 117.859L146.219 117.02C147.384 116.473 148.536 116.199 149.676 116.199C150.841 116.199 151.71 116.502 152.283 117.107C152.863 117.713 153.152 118.657 153.152 119.939V127H152.439ZM148.533 126.316C149.666 126.316 150.558 125.994 151.209 125.35C151.867 124.699 152.195 123.797 152.195 122.645V121.6L150.34 121.678C148.849 121.749 147.785 121.984 147.146 122.381C146.515 122.771 146.199 123.383 146.199 124.217C146.199 124.881 146.401 125.398 146.805 125.77C147.215 126.134 147.791 126.316 148.533 126.316ZM163.182 124.236C163.182 125.187 162.82 125.919 162.098 126.434C161.375 126.941 160.35 127.195 159.021 127.195C157.602 127.195 156.476 126.977 155.643 126.541V125.496C156.71 126.03 157.837 126.297 159.021 126.297C160.07 126.297 160.864 126.124 161.404 125.779C161.951 125.428 162.225 124.962 162.225 124.383C162.225 123.849 162.007 123.4 161.57 123.035C161.141 122.671 160.431 122.312 159.441 121.961C158.38 121.577 157.635 121.248 157.205 120.975C156.775 120.695 156.45 120.382 156.229 120.037C156.014 119.686 155.906 119.259 155.906 118.758C155.906 117.964 156.238 117.335 156.902 116.873C157.573 116.411 158.507 116.18 159.705 116.18C160.851 116.18 161.938 116.395 162.967 116.824L162.605 117.703C161.564 117.273 160.597 117.059 159.705 117.059C158.839 117.059 158.152 117.202 157.645 117.488C157.137 117.775 156.883 118.172 156.883 118.68C156.883 119.233 157.078 119.676 157.469 120.008C157.866 120.34 158.637 120.711 159.783 121.121C160.74 121.466 161.437 121.779 161.873 122.059C162.309 122.332 162.635 122.645 162.85 122.996C163.071 123.348 163.182 123.761 163.182 124.236ZM63.8945 154.195C62.3516 154.195 61.1471 153.72 60.2812 152.77C59.4219 151.819 58.9922 150.488 58.9922 148.775C58.9922 147.083 59.4089 145.729 60.2422 144.713C61.0755 143.691 62.1986 143.18 63.6113 143.18C64.8613 143.18 65.8477 143.616 66.5703 144.488C67.293 145.361 67.6543 146.546 67.6543 148.043V148.824H60.0078C60.0208 150.283 60.3594 151.396 61.0234 152.164C61.694 152.932 62.651 153.316 63.8945 153.316C64.5 153.316 65.0306 153.274 65.4863 153.189C65.9486 153.105 66.5312 152.923 67.2344 152.643V153.521C66.6354 153.782 66.082 153.958 65.5742 154.049C65.0664 154.146 64.5065 154.195 63.8945 154.195ZM63.6113 144.039C62.5892 144.039 61.7689 144.378 61.1504 145.055C60.5319 145.725 60.1706 146.695 60.0664 147.965H66.6289C66.6289 146.734 66.362 145.774 65.8281 145.084C65.2943 144.387 64.5553 144.039 63.6113 144.039ZM72.9082 154L68.8066 143.385H69.8027L72.5469 150.602C72.9115 151.526 73.1849 152.333 73.3672 153.023H73.4258C73.6927 152.138 73.9661 151.324 74.2461 150.582L76.9902 143.385H77.9863L73.8848 154H72.9082ZM80.7305 154H79.7637V143.385H80.7305V154ZM79.627 140.436C79.627 139.811 79.832 139.498 80.2422 139.498C80.444 139.498 80.6003 139.579 80.7109 139.742C80.8281 139.905 80.8867 140.136 80.8867 140.436C80.8867 140.729 80.8281 140.96 80.7109 141.129C80.6003 141.298 80.444 141.383 80.2422 141.383C79.832 141.383 79.627 141.067 79.627 140.436ZM88.1816 143.18C88.9499 143.18 89.6139 143.32 90.1738 143.6C90.7337 143.88 91.235 144.358 91.6777 145.035H91.7363C91.6973 144.215 91.6777 143.411 91.6777 142.623V138.805H92.6348V154H92L91.7559 152.379H91.6777C90.8704 153.59 89.7116 154.195 88.2012 154.195C86.7363 154.195 85.6165 153.74 84.8418 152.828C84.0671 151.917 83.6797 150.589 83.6797 148.844C83.6797 147.008 84.0638 145.605 84.832 144.635C85.6003 143.665 86.7168 143.18 88.1816 143.18ZM88.1816 144.059C87.0228 144.059 86.1504 144.465 85.5645 145.279C84.985 146.093 84.6953 147.275 84.6953 148.824C84.6953 151.832 85.8639 153.336 88.2012 153.336C89.3991 153.336 90.278 152.988 90.8379 152.291C91.3978 151.594 91.6777 150.445 91.6777 148.844V148.678C91.6777 147.037 91.401 145.859 90.8477 145.143C90.3008 144.42 89.4121 144.059 88.1816 144.059ZM100.496 154.195C98.9531 154.195 97.7487 153.72 96.8828 152.77C96.0234 151.819 95.5938 150.488 95.5938 148.775C95.5938 147.083 96.0104 145.729 96.8438 144.713C97.6771 143.691 98.8001 143.18 100.213 143.18C101.463 143.18 102.449 143.616 103.172 144.488C103.895 145.361 104.256 146.546 104.256 148.043V148.824H96.6094C96.6224 150.283 96.9609 151.396 97.625 152.164C98.2956 152.932 99.2526 153.316 100.496 153.316C101.102 153.316 101.632 153.274 102.088 153.189C102.55 153.105 103.133 152.923 103.836 152.643V153.521C103.237 153.782 102.684 153.958 102.176 154.049C101.668 154.146 101.108 154.195 100.496 154.195ZM100.213 144.039C99.1908 144.039 98.3704 144.378 97.752 145.055C97.1335 145.725 96.7721 146.695 96.668 147.965H103.23C103.23 146.734 102.964 145.774 102.43 145.084C101.896 144.387 101.157 144.039 100.213 144.039ZM114.588 154V147.115C114.588 146.048 114.363 145.273 113.914 144.791C113.465 144.303 112.768 144.059 111.824 144.059C110.555 144.059 109.624 144.381 109.031 145.025C108.445 145.663 108.152 146.702 108.152 148.141V154H107.186V143.385H108.006L108.191 144.84H108.25C108.94 143.733 110.167 143.18 111.932 143.18C114.34 143.18 115.545 144.472 115.545 147.057V154H114.588ZM123.221 154.195C121.704 154.195 120.516 153.717 119.656 152.76C118.797 151.803 118.367 150.468 118.367 148.756C118.367 146.998 118.813 145.631 119.705 144.654C120.597 143.671 121.818 143.18 123.367 143.18C124.285 143.18 125.164 143.339 126.004 143.658L125.74 144.518C124.822 144.212 124.025 144.059 123.348 144.059C122.046 144.059 121.059 144.462 120.389 145.27C119.718 146.07 119.383 147.226 119.383 148.736C119.383 150.169 119.718 151.292 120.389 152.105C121.059 152.913 121.997 153.316 123.201 153.316C124.165 153.316 125.06 153.144 125.887 152.799V153.697C125.21 154.029 124.321 154.195 123.221 154.195ZM129.461 154H128.494V143.385H129.461V154ZM128.357 140.436C128.357 139.811 128.562 139.498 128.973 139.498C129.174 139.498 129.331 139.579 129.441 139.742C129.559 139.905 129.617 140.136 129.617 140.436C129.617 140.729 129.559 140.96 129.441 141.129C129.331 141.298 129.174 141.383 128.973 141.383C128.562 141.383 128.357 141.067 128.357 140.436ZM139.471 154L139.227 152.32H139.148C138.615 153.004 138.064 153.489 137.498 153.775C136.938 154.055 136.274 154.195 135.506 154.195C134.464 154.195 133.654 153.928 133.074 153.395C132.495 152.861 132.205 152.122 132.205 151.178C132.205 150.143 132.635 149.339 133.494 148.766C134.36 148.193 135.61 147.89 137.244 147.857L139.266 147.799V147.096C139.266 146.087 139.061 145.325 138.65 144.811C138.24 144.296 137.579 144.039 136.668 144.039C135.685 144.039 134.666 144.312 133.611 144.859L133.25 144.02C134.415 143.473 135.568 143.199 136.707 143.199C137.872 143.199 138.742 143.502 139.314 144.107C139.894 144.713 140.184 145.657 140.184 146.939V154H139.471ZM135.564 153.316C136.697 153.316 137.589 152.994 138.24 152.35C138.898 151.699 139.227 150.797 139.227 149.645V148.6L137.371 148.678C135.88 148.749 134.816 148.984 134.178 149.381C133.546 149.771 133.23 150.383 133.23 151.217C133.23 151.881 133.432 152.398 133.836 152.77C134.246 153.134 134.822 153.316 135.564 153.316ZM150.213 151.236C150.213 152.187 149.852 152.919 149.129 153.434C148.406 153.941 147.381 154.195 146.053 154.195C144.633 154.195 143.507 153.977 142.674 153.541V152.496C143.742 153.03 144.868 153.297 146.053 153.297C147.101 153.297 147.895 153.124 148.436 152.779C148.982 152.428 149.256 151.962 149.256 151.383C149.256 150.849 149.038 150.4 148.602 150.035C148.172 149.671 147.462 149.312 146.473 148.961C145.411 148.577 144.666 148.248 144.236 147.975C143.807 147.695 143.481 147.382 143.26 147.037C143.045 146.686 142.938 146.259 142.938 145.758C142.938 144.964 143.27 144.335 143.934 143.873C144.604 143.411 145.538 143.18 146.736 143.18C147.882 143.18 148.969 143.395 149.998 143.824L149.637 144.703C148.595 144.273 147.628 144.059 146.736 144.059C145.87 144.059 145.184 144.202 144.676 144.488C144.168 144.775 143.914 145.172 143.914 145.68C143.914 146.233 144.109 146.676 144.5 147.008C144.897 147.34 145.669 147.711 146.814 148.121C147.771 148.466 148.468 148.779 148.904 149.059C149.34 149.332 149.666 149.645 149.881 149.996C150.102 150.348 150.213 150.761 150.213 151.236ZM62.7812 181.195C61.388 181.195 60.3073 180.733 59.5391 179.809C58.7708 178.884 58.3867 177.549 58.3867 175.805C58.3867 174.014 58.7708 172.631 59.5391 171.654C60.3073 170.671 61.4076 170.18 62.8398 170.18C64.3763 170.18 65.5254 170.746 66.2871 171.879H66.3457L66.5215 170.385H67.3418V185.805H66.3848V181.762C66.3848 180.967 66.4043 180.16 66.4434 179.34H66.3848C65.6165 180.577 64.4154 181.195 62.7812 181.195ZM62.8008 180.336C64.0898 180.336 65.0078 179.981 65.5547 179.271C66.1081 178.562 66.3848 177.37 66.3848 175.697V175.58C66.3848 173.985 66.1081 172.833 65.5547 172.123C65.0013 171.413 64.1191 171.059 62.9082 171.059C61.7624 171.059 60.89 171.462 60.291 172.27C59.6986 173.077 59.4023 174.262 59.4023 175.824C59.4023 177.315 59.6921 178.441 60.2715 179.203C60.8574 179.958 61.7005 180.336 62.8008 180.336ZM71.7559 170.385V177.26C71.7559 178.327 71.9805 179.105 72.4297 179.594C72.8789 180.076 73.5755 180.316 74.5195 180.316C75.7826 180.316 76.7103 179.997 77.3027 179.359C77.9017 178.721 78.2012 177.683 78.2012 176.244V170.385H79.1582V181H78.3379L78.1621 179.535H78.1035C77.4134 180.642 76.1862 181.195 74.4219 181.195C72.0065 181.195 70.7988 179.903 70.7988 177.318V170.385H71.7559ZM87 181.195C85.457 181.195 84.2526 180.72 83.3867 179.77C82.5273 178.819 82.0977 177.488 82.0977 175.775C82.0977 174.083 82.5143 172.729 83.3477 171.713C84.181 170.691 85.304 170.18 86.7168 170.18C87.9668 170.18 88.9531 170.616 89.6758 171.488C90.3984 172.361 90.7598 173.546 90.7598 175.043V175.824H83.1133C83.1263 177.283 83.4648 178.396 84.1289 179.164C84.7995 179.932 85.7565 180.316 87 180.316C87.6055 180.316 88.1361 180.274 88.5918 180.189C89.054 180.105 89.6367 179.923 90.3398 179.643V180.521C89.7409 180.782 89.1875 180.958 88.6797 181.049C88.1719 181.146 87.612 181.195 87 181.195ZM86.7168 171.039C85.6947 171.039 84.8743 171.378 84.2559 172.055C83.6374 172.725 83.276 173.695 83.1719 174.965H89.7344C89.7344 173.734 89.4674 172.774 88.9336 172.084C88.3997 171.387 87.6608 171.039 86.7168 171.039ZM101.688 180.336C102.299 180.336 102.833 180.284 103.289 180.18V180.961C102.82 181.117 102.28 181.195 101.668 181.195C100.73 181.195 100.037 180.945 99.5879 180.443C99.1452 179.942 98.9238 179.154 98.9238 178.08V171.225H97.3516V170.658L98.9238 170.219L99.4121 167.816H99.9102V170.385H103.025V171.225H99.9102V177.943C99.9102 178.757 100.053 179.359 100.34 179.75C100.626 180.141 101.076 180.336 101.688 180.336ZM109.871 181.195C108.328 181.195 107.124 180.72 106.258 179.77C105.398 178.819 104.969 177.488 104.969 175.775C104.969 174.083 105.385 172.729 106.219 171.713C107.052 170.691 108.175 170.18 109.588 170.18C110.838 170.18 111.824 170.616 112.547 171.488C113.27 172.361 113.631 173.546 113.631 175.043V175.824H105.984C105.997 177.283 106.336 178.396 107 179.164C107.671 179.932 108.628 180.316 109.871 180.316C110.477 180.316 111.007 180.274 111.463 180.189C111.925 180.105 112.508 179.923 113.211 179.643V180.521C112.612 180.782 112.059 180.958 111.551 181.049C111.043 181.146 110.483 181.195 109.871 181.195ZM109.588 171.039C108.566 171.039 107.745 171.378 107.127 172.055C106.508 172.725 106.147 173.695 106.043 174.965H112.605C112.605 173.734 112.339 172.774 111.805 172.084C111.271 171.387 110.532 171.039 109.588 171.039ZM123.963 181V174.115C123.963 173.048 123.738 172.273 123.289 171.791C122.84 171.303 122.143 171.059 121.199 171.059C119.93 171.059 118.999 171.381 118.406 172.025C117.82 172.663 117.527 173.702 117.527 175.141V181H116.561V170.385H117.381L117.566 171.84H117.625C118.315 170.733 119.542 170.18 121.307 170.18C123.715 170.18 124.92 171.472 124.92 174.057V181H123.963ZM136.639 170.385V171.059L134.441 171.195C135.027 171.924 135.32 172.725 135.32 173.598C135.32 174.62 134.979 175.45 134.295 176.088C133.618 176.719 132.706 177.035 131.561 177.035C131.079 177.035 130.74 177.016 130.545 176.977C130.161 177.178 129.868 177.416 129.666 177.689C129.464 177.963 129.363 178.253 129.363 178.559C129.363 178.897 129.49 179.145 129.744 179.301C130.005 179.457 130.438 179.535 131.043 179.535H132.898C134.051 179.535 134.933 179.77 135.545 180.238C136.157 180.701 136.463 181.387 136.463 182.299C136.463 183.419 136.007 184.281 135.096 184.887C134.191 185.499 132.898 185.805 131.219 185.805C129.884 185.805 128.849 185.548 128.113 185.033C127.384 184.519 127.02 183.803 127.02 182.885C127.02 182.156 127.244 181.55 127.693 181.068C128.149 180.587 128.764 180.258 129.539 180.082C129.22 179.945 128.963 179.753 128.768 179.506C128.579 179.252 128.484 178.962 128.484 178.637C128.484 177.927 128.937 177.302 129.842 176.762C129.223 176.508 128.742 176.111 128.396 175.57C128.051 175.023 127.879 174.398 127.879 173.695C127.879 172.634 128.214 171.785 128.885 171.146C129.562 170.502 130.473 170.18 131.619 170.18C132.316 170.18 132.856 170.248 133.24 170.385H136.639ZM128.045 182.797C128.045 184.255 129.129 184.984 131.297 184.984C134.083 184.984 135.477 184.096 135.477 182.318C135.477 181.68 135.258 181.218 134.822 180.932C134.386 180.645 133.68 180.502 132.703 180.502H130.965C129.018 180.502 128.045 181.267 128.045 182.797ZM128.855 173.695C128.855 174.516 129.103 175.154 129.598 175.609C130.099 176.059 130.766 176.283 131.6 176.283C132.485 176.283 133.162 176.059 133.631 175.609C134.106 175.16 134.344 174.509 134.344 173.656C134.344 172.751 134.1 172.074 133.611 171.625C133.13 171.169 132.452 170.941 131.58 170.941C130.734 170.941 130.066 171.186 129.578 171.674C129.096 172.156 128.855 172.829 128.855 173.695ZM145.271 181L145.027 179.32H144.949C144.415 180.004 143.865 180.489 143.299 180.775C142.739 181.055 142.075 181.195 141.307 181.195C140.265 181.195 139.454 180.928 138.875 180.395C138.296 179.861 138.006 179.122 138.006 178.178C138.006 177.143 138.436 176.339 139.295 175.766C140.161 175.193 141.411 174.89 143.045 174.857L145.066 174.799V174.096C145.066 173.087 144.861 172.325 144.451 171.811C144.041 171.296 143.38 171.039 142.469 171.039C141.486 171.039 140.467 171.312 139.412 171.859L139.051 171.02C140.216 170.473 141.368 170.199 142.508 170.199C143.673 170.199 144.542 170.502 145.115 171.107C145.695 171.713 145.984 172.657 145.984 173.939V181H145.271ZM141.365 180.316C142.498 180.316 143.39 179.994 144.041 179.35C144.699 178.699 145.027 177.797 145.027 176.645V175.6L143.172 175.678C141.681 175.749 140.617 175.984 139.979 176.381C139.347 176.771 139.031 177.383 139.031 178.217C139.031 178.881 139.233 179.398 139.637 179.77C140.047 180.134 140.623 180.316 141.365 180.316ZM156.014 178.236C156.014 179.187 155.652 179.919 154.93 180.434C154.207 180.941 153.182 181.195 151.854 181.195C150.434 181.195 149.308 180.977 148.475 180.541V179.496C149.542 180.03 150.669 180.297 151.854 180.297C152.902 180.297 153.696 180.124 154.236 179.779C154.783 179.428 155.057 178.962 155.057 178.383C155.057 177.849 154.839 177.4 154.402 177.035C153.973 176.671 153.263 176.312 152.273 175.961C151.212 175.577 150.467 175.248 150.037 174.975C149.607 174.695 149.282 174.382 149.061 174.037C148.846 173.686 148.738 173.259 148.738 172.758C148.738 171.964 149.07 171.335 149.734 170.873C150.405 170.411 151.339 170.18 152.537 170.18C153.683 170.18 154.77 170.395 155.799 170.824L155.438 171.703C154.396 171.273 153.429 171.059 152.537 171.059C151.671 171.059 150.984 171.202 150.477 171.488C149.969 171.775 149.715 172.172 149.715 172.68C149.715 173.233 149.91 173.676 150.301 174.008C150.698 174.34 151.469 174.711 152.615 175.121C153.572 175.466 154.269 175.779 154.705 176.059C155.141 176.332 155.467 176.645 155.682 176.996C155.903 177.348 156.014 177.761 156.014 178.236Z" fill="black"/>
</svg>
