<svg width="49" height="44" viewBox="0 0 49 44" fill="none" xmlns="http://www.w3.org/2000/svg">
<path d="M13.1545 15.4027H18.1133V30.1132C18.1133 31.6057 19.3235 32.8143 20.8145 32.8143H28.1873C29.6782 32.8143 30.8884 31.6058 30.8884 30.1132V15.4027H35.8456C36.6668 15.4027 37.4051 14.9082 37.7209 14.1493C38.0334 13.3935 37.8595 12.5197 37.2792 11.9395L25.9342 0.593077C25.1418 -0.197692 23.8582 -0.197692 23.0641 0.593077L11.721 11.9395C11.1407 12.5197 10.9668 13.392 11.281 14.1493C11.5966 14.9067 12.3332 15.4027 13.1545 15.4027Z" fill="#C4C4C4"/>
<path d="M46.5636 20.916C45.2193 20.916 44.1288 22.0067 44.1288 23.3524V33.5396C44.1288 36.5913 41.6445 39.0739 38.5927 39.0739H10.4071C7.35526 39.0739 4.87268 36.5913 4.87268 33.5396V23.3524C4.87268 22.0067 3.7805 20.916 2.43634 20.916C1.09058 20.916 0 22.0067 0 23.3525V33.5397C0 39.278 4.66854 43.9468 10.4071 43.9468H38.5927C44.3312 43.9468 49 39.2781 49 33.5397V23.3525C49 22.0067 47.9093 20.916 46.5636 20.916Z" fill="#C4C4C4"/>
</svg>
