<svg width="73" height="75" viewBox="0 0 73 75" fill="none" xmlns="http://www.w3.org/2000/svg">
<g clip-path="url(#clip0)">
<path d="M70.354 57.3918L55.7607 47.4313C53.9088 46.1774 51.4264 46.59 50.0572 48.3793L45.8064 53.9732C45.2601 54.7104 44.267 54.9243 43.4767 54.475L42.6681 54.0187C39.9875 52.5234 36.6523 50.6617 29.9324 43.7815C23.2124 36.9014 21.3898 33.4853 19.9287 30.7468L19.4853 29.9192C19.0402 29.1105 19.2453 28.0898 19.9659 27.5262L25.4278 23.1769C27.1754 21.7755 27.579 19.2355 26.3553 17.3395L16.6233 2.40361C15.3692 0.472892 12.8531 -0.106697 10.9116 1.08779L4.80923 4.83955C2.89182 5.99325 1.48509 7.86172 0.884022 10.0534C-1.31343 18.2481 0.33969 32.3908 20.6953 53.2267C36.8878 69.798 48.9424 74.2545 57.2279 74.2545C59.1347 74.2629 61.0341 74.0089 62.8749 73.4995C65.0167 72.8851 66.8426 71.4452 67.9692 69.4822L71.6385 63.2403C72.8073 61.2528 72.2413 58.6761 70.354 57.3918ZM69.5682 61.9785L65.9073 68.2241C65.0984 69.641 63.7852 70.6827 62.2427 71.1312C54.8512 73.2081 41.9376 71.4878 22.3954 51.4868C2.8531 31.4858 1.17238 18.2703 3.20172 10.704C3.64045 9.1235 4.65956 7.7777 6.04559 6.94852L12.148 3.20166C12.9904 2.68288 14.0824 2.93434 14.6266 3.77217L19.9132 11.8955L24.3504 18.7067C24.8817 19.5292 24.7071 20.6314 23.9491 21.24L18.4859 25.5893C16.8234 26.8905 16.3486 29.2447 17.3722 31.1132L17.806 31.9198C19.3416 34.8022 21.2507 38.388 28.2205 45.5203C35.1904 52.6525 38.6928 54.6065 41.5078 56.178L42.2971 56.6231C44.1225 57.6706 46.4229 57.1849 47.6942 55.4833L51.9438 49.8919C52.5385 49.1164 53.6151 48.9379 54.4189 49.4812L69.0109 59.4417C69.8301 59.9982 70.0758 61.1165 69.5682 61.9785Z" fill="white"/>
<path d="M41.0003 12.7698C52.2756 12.7827 61.4129 22.1346 61.4256 33.6747C61.4256 34.3538 61.9635 34.9043 62.6271 34.9043C63.2906 34.9043 63.8285 34.3538 63.8285 33.6747C63.8146 20.7769 53.6022 10.3247 41.0003 10.3105C40.3367 10.3105 39.7988 10.861 39.7988 11.5402C39.7988 12.2194 40.3367 12.7698 41.0003 12.7698Z" fill="white"/>
<path d="M41.0003 20.1479C48.2959 20.1567 54.2081 26.2076 54.2167 33.6746C54.2167 34.3537 54.7547 34.9042 55.4181 34.9042C56.0817 34.9042 56.6196 34.3537 56.6196 33.6746C56.6096 24.8499 49.6224 17.6987 41.0003 17.6886C40.3367 17.6886 39.7988 18.2391 39.7988 18.9182C39.7988 19.5974 40.3367 20.1479 41.0003 20.1479Z" fill="white"/>
<path d="M41.0003 27.5261C44.3164 27.5301 47.0037 30.2805 47.0078 33.6746C47.0078 34.3537 47.5458 34.9042 48.2092 34.9042C48.8726 34.9042 49.4106 34.3537 49.4106 33.6746C49.4053 28.9229 45.643 25.0721 41.0003 25.0668C40.3367 25.0668 39.7988 25.6173 39.7988 26.2964C39.7988 26.9756 40.3367 27.5261 41.0003 27.5261Z" fill="white"/>
</g>
<defs>
<clipPath id="clip0">
<rect width="72.1" height="73.7925" fill="white" transform="translate(0.145996 0.464722)"/>
</clipPath>
</defs>
</svg>
