<svg width="73" height="75" viewBox="0 0 73 75" fill="none" xmlns="http://www.w3.org/2000/svg">
<g clip-path="url(#clip0)">
<path d="M72.7139 22.2097C72.5449 18.2889 71.9254 15.5933 71.038 13.2575C70.1225 10.7782 68.714 8.55844 66.8687 6.71316C65.0657 4.83915 62.8826 3.38297 60.4882 2.46061C58.1928 1.55232 55.5728 0.918271 51.7418 0.745398C47.8823 0.557885 46.657 0.514526 36.8681 0.514526C27.0792 0.514526 25.8539 0.557885 22.0086 0.730758C18.1777 0.90363 15.5439 1.53825 13.2623 2.44597C10.8393 3.38297 8.67045 4.82451 6.86749 6.71316C5.03647 8.55844 3.61424 10.7928 2.71248 13.2435C1.82503 15.5933 1.20552 18.2742 1.03661 22.1951C0.8534 26.1453 0.811035 27.3993 0.811035 37.418C0.811035 47.4367 0.8534 48.6907 1.02231 52.6263C1.19121 56.5471 1.81127 59.2427 2.69873 61.5785C3.61424 64.0578 5.03647 66.2776 6.86749 68.1228C8.67045 69.9968 10.8536 71.453 13.248 72.3754C15.5439 73.2837 18.1634 73.9177 21.9949 74.0906C25.8396 74.264 27.0654 74.3068 36.8543 74.3068C46.6432 74.3068 47.8685 74.264 51.7138 74.0906C55.5447 73.9177 58.1785 73.2837 60.4601 72.3754C65.3056 70.458 69.1365 66.5371 71.0099 61.5785C71.8968 59.2286 72.5169 56.5471 72.6858 52.6263C72.8547 48.6907 72.8971 47.4367 72.8971 37.418C72.8971 27.3993 72.8828 26.1453 72.7139 22.2097ZM66.2211 52.338C66.0659 55.9418 65.4745 57.8879 64.9815 59.1853C63.77 62.4 61.2771 64.9514 58.1361 66.1914C56.8685 66.6959 54.9533 67.3013 51.4458 67.4595C47.6429 67.6329 46.5024 67.6757 36.8824 67.6757C27.2624 67.6757 26.1075 67.6329 22.3184 67.4595C18.7972 67.3013 16.8957 66.6959 15.6281 66.1914C14.065 65.6001 12.6423 64.6631 11.4874 63.4378C10.2902 62.2412 9.37469 60.7997 8.797 59.1999C8.30403 57.9025 7.71258 55.9418 7.55798 52.3526C7.38852 48.4604 7.3467 47.2926 7.3467 37.4467C7.3467 27.6009 7.38852 26.4189 7.55798 22.5414C7.71258 18.9375 8.30403 16.9915 8.797 15.6941C9.37469 14.0937 10.2902 12.6381 11.5017 11.4556C12.6703 10.2303 14.0788 9.29329 15.6424 8.7026C16.9101 8.19806 18.8258 7.59272 22.3327 7.43393C26.1356 7.26105 27.2767 7.2177 36.8961 7.2177C46.5305 7.2177 47.671 7.26105 51.4601 7.43393C54.9813 7.59272 56.8828 8.19806 58.1504 8.7026C59.7135 9.29329 61.1363 10.2303 62.2911 11.4556C63.4883 12.6522 64.4038 14.0937 64.9815 15.6941C65.4745 16.9915 66.0659 18.9516 66.2211 22.5414C66.39 26.4336 66.4324 27.6009 66.4324 37.4467C66.4324 47.2926 66.39 48.4458 66.2211 52.338Z" fill="white"/>
<path d="M36.8682 18.4617C26.6429 18.4617 18.3467 26.9521 18.3467 37.4179C18.3467 47.8838 26.6429 56.3742 36.8682 56.3742C47.0939 56.3742 55.3896 47.8838 55.3896 37.4179C55.3896 26.9521 47.0939 18.4617 36.8682 18.4617ZM36.8682 49.7144C30.2346 49.7144 24.8537 44.2078 24.8537 37.4179C24.8537 30.6281 30.2346 25.1215 36.8682 25.1215C43.5023 25.1215 48.8826 30.6281 48.8826 37.4179C48.8826 44.2078 43.5023 49.7144 36.8682 49.7144Z" fill="white"/>
<path d="M60.4467 17.7123C60.4467 20.1562 58.5106 22.1377 56.1223 22.1377C53.7344 22.1377 51.7983 20.1562 51.7983 17.7123C51.7983 15.2679 53.7344 13.2869 56.1223 13.2869C58.5106 13.2869 60.4467 15.2679 60.4467 17.7123Z" fill="white"/>
</g>
<defs>
<clipPath id="clip0">
<rect width="72.1" height="73.7925" fill="white" transform="translate(0.68457 0.514526)"/>
</clipPath>
</defs>
</svg>
