<svg width="96" height="98" viewBox="0 0 96 98" fill="none" xmlns="http://www.w3.org/2000/svg">
<g clip-path="url(#clip0)">
<path d="M87.6042 14.6685H9.1947C4.57504 14.6685 0.833496 18.5216 0.833496 23.2259V74.5708C0.833496 79.3031 4.60254 83.1283 9.1947 83.1283H87.6042C92.1852 83.1283 95.9654 79.3193 95.9654 74.5708V23.2259C95.9654 18.53 92.2388 14.6685 87.6042 14.6685ZM86.4333 20.3734C84.725 22.1125 55.3268 52.0424 54.3118 53.0758C52.7324 54.6922 50.6328 55.5822 48.3995 55.5822C46.1661 55.5822 44.0665 54.692 42.482 53.0704C41.7993 52.3754 12.7255 22.776 10.3656 20.3734H86.4333ZM6.40763 73.4097V24.3907L30.495 48.9136L6.40763 73.4097ZM10.3692 77.4233L34.447 52.937L38.5457 57.1098C41.1778 59.8037 44.6772 61.2872 48.3995 61.2872C52.1217 61.2872 55.6211 59.8037 58.248 57.1151L62.3519 52.937L86.4298 77.4233H10.3692ZM90.3913 73.4097L66.304 48.9136L90.3913 24.3907V73.4097Z" fill="white"/>
</g>
<defs>
<clipPath id="clip0">
<rect width="95.1319" height="97.3651" fill="white" transform="translate(0.833496 0.21582)"/>
</clipPath>
</defs>
</svg>
