<svg width="91" height="91" viewBox="0 0 91 91" fill="none" xmlns="http://www.w3.org/2000/svg">
<path d="M45.5 50.832H29.5039C29.5039 59.6528 36.6792 66.8281 45.5 66.8281C54.3208 66.8281 61.4961 59.6528 61.4961 50.832H45.5Z" fill="#E6455A"/>
<path d="M61.4961 50.832H45.5V66.8281C54.3208 66.8281 61.4961 59.6528 61.4961 50.832Z" fill="#B32437"/>
<path d="M26.8379 18.8398L16.1738 13.189C6.26478 23.162 0 37.4385 0 50.832V80.3359C0 86.2255 4.95221 91 10.8418 91C16.7314 91 21.5059 86.2255 21.5059 80.3359V56.1641L26.8379 51.4985V18.8398Z" fill="#CC7029"/>
<path d="M74.8262 13.189L64.1621 18.8398V50.832L69.4941 56.1641V80.3359C69.4941 86.2255 74.2686 91 80.1582 91C86.0478 91 91 86.2255 91 80.3359V50.832C91 37.4385 84.7352 23.162 74.8262 13.189Z" fill="#994A0F"/>
<path d="M51.0748 0.453934L47.2626 21.347L69.4941 51.7484V50.832C69.4941 44.9428 70.7438 40.3763 72.0665 35.5389C73.4228 30.5765 74.8262 25.445 74.8262 18.8398V13.189C68.6058 6.92827 60.3013 1.86514 51.0748 0.453934Z" fill="#CC7029"/>
<path d="M39.895 0.45784C30.6622 1.87776 22.3476 6.97536 16.1738 13.189V18.8398C16.1738 25.445 17.5772 30.5765 18.9335 35.5389C20.2562 40.3763 21.5059 44.9428 21.5059 50.832L43.7061 21.6594L39.895 0.45784Z" fill="#E68945"/>
<path d="M29.5039 26.8379C30.9763 26.8379 32.1699 25.6443 32.1699 24.1719C32.1699 22.6995 30.9763 21.5059 29.5039 21.5059C28.0315 21.5059 26.8379 22.6995 26.8379 24.1719C26.8379 25.6443 28.0315 26.8379 29.5039 26.8379Z" fill="#463F3F"/>
<path d="M61.4961 26.8379C62.9685 26.8379 64.1621 25.6443 64.1621 24.1719C64.1621 22.6995 62.9685 21.5059 61.4961 21.5059C60.0237 21.5059 58.8301 22.6995 58.8301 24.1719C58.8301 25.6443 60.0237 26.8379 61.4961 26.8379Z" fill="#352C2C"/>
<path d="M58.8144 31.0633C58.8144 31.0633 58.8144 31.0633 58.8144 31.0607C55.1903 28.5404 52.9773 25.0621 52.5946 21.347L51.0748 0.453934C49.2534 0.175424 47.3993 0 45.5 0C43.5902 0 41.7262 0.176312 39.895 0.457844C39.895 0.457844 38.999 15.5853 38.3741 21.6594C38.0017 25.3017 35.8565 28.577 32.3391 30.8785C25.5543 35.3124 21.5059 42.7714 21.5059 50.832V56.1641C21.5059 63.5139 27.4861 69.4941 34.8359 69.4941C35.9269 69.4941 36.9058 68.8303 37.312 67.8174L40.6628 59.4418C41.0986 58.3529 41.8799 57.5045 42.8342 56.9324L45.5 53.498L48.166 56.9324C49.1203 57.5042 49.9016 58.3516 50.3374 59.4394L53.6882 67.8176C54.0942 68.8303 55.0731 69.4941 56.1641 69.4941C63.5139 69.4941 69.4941 63.5139 69.4941 56.1641V51.7484C69.4941 43.4511 65.5029 35.7186 58.8144 31.0633Z" fill="#FFF7CC"/>
<path d="M50.3374 59.4394L53.6882 67.8176C54.0942 68.8303 55.0731 69.4941 56.1641 69.4941C63.5139 69.4941 69.4941 63.5139 69.4941 56.1641V51.7484C69.4941 43.4509 65.5029 35.7186 58.8144 31.0633C58.8144 31.0633 58.8144 31.0633 58.8144 31.0607C55.1903 28.5404 52.9773 25.0621 52.5946 21.347L51.0748 0.453934C49.2534 0.175424 47.3993 0 45.5 0V53.498L48.166 56.9324C49.1203 57.5042 49.9016 58.3516 50.3374 59.4394Z" fill="#FFE6B3"/>
<path d="M45.5 42.834C44.0264 42.834 42.834 44.0264 42.834 45.5V56.9324C43.6247 56.4579 44.5289 56.1641 45.5 56.1641C46.4711 56.1641 47.3753 56.4582 48.166 56.9324V45.5C48.166 44.0264 46.9736 42.834 45.5 42.834Z" fill="#766E6E"/>
<path d="M48.166 45.5C48.166 44.0264 46.9736 42.834 45.5 42.834V56.1641C46.4711 56.1641 47.3753 56.4582 48.166 56.9324V45.5Z" fill="#5B5555"/>
<path d="M46.833 34.8395H45.5H44.167C39.9278 34.7768 37.502 35.8597 37.502 40.168C37.502 44.5783 41.0897 48.166 45.5 48.166C49.9103 48.166 53.498 44.5783 53.498 40.168C53.498 35.8318 51.0716 34.8135 46.833 34.8395Z" fill="#463F3F"/>
<path d="M53.498 40.168C53.498 35.8318 51.0716 34.8135 46.833 34.8395H45.5V48.166C49.9103 48.166 53.498 44.5783 53.498 40.168Z" fill="#352C2C"/>
</svg>
