<svg width="69" height="60" viewBox="0 0 69 60" fill="none" xmlns="http://www.w3.org/2000/svg">
<path d="M55.2793 50.1427C55.1224 52.4097 54.2361 54.5662 52.7516 56.293C51.2671 58.0199 49.2633 59.2254 47.0367 59.7312C46.2561 59.9091 45.4578 59.999 44.657 59.9992C43.1874 59.9987 41.734 59.693 40.39 59.1017C37.7668 57.9576 34.9353 57.3619 32.0711 57.3516C29.2069 57.3413 26.3712 57.9166 23.7397 59.0418L23.6017 59.1017C21.511 60.016 19.18 60.2364 16.9536 59.7303C14.7273 59.2242 12.7238 58.0185 11.2396 56.2916C9.75539 54.5647 8.86936 52.4083 8.71259 50.1415C8.55583 47.8746 9.13665 45.6178 10.3691 43.7049L17.8505 32.0927C19.3708 29.733 21.4631 27.7915 23.9349 26.4468C26.4067 25.1021 29.1787 24.3974 31.9958 24.3974C34.813 24.3974 37.585 25.1021 40.0568 26.4468C42.5286 27.7915 44.6209 29.733 46.1412 32.0927L53.6226 43.7049C54.8604 45.616 55.4417 47.875 55.2793 50.1427Z" fill="#4587FF"/>
<path d="M12.384 32.0774C13.5001 31.6398 14.5055 30.9626 15.3284 30.0941C16.1514 29.2256 16.7716 28.1871 17.145 27.0528C17.9472 24.6971 17.8814 22.1344 16.9593 19.8226C16.085 17.4931 14.4072 15.5485 12.2254 14.3356C11.1845 13.7432 10.0252 13.3864 8.8299 13.2906C7.63462 13.1948 6.43281 13.3623 5.31002 13.7813C0.839701 15.4917 -1.21195 20.9882 0.737669 26.0362C2.29457 30.053 5.92662 32.5909 9.5983 32.5909C10.5518 32.5932 11.4976 32.4199 12.3877 32.0796L12.384 32.0774Z" fill="#4587FF"/>
<path d="M37.0369 11.4917C37.0756 13.4303 36.6364 15.3488 35.7575 17.0793C34.8787 18.8099 33.587 20.2999 31.9955 21.419C30.4906 22.4311 28.717 22.9747 26.9005 22.9805C21.3123 22.9805 16.7664 17.8258 16.7664 11.4917C16.7664 5.15757 21.3101 0 26.9005 0C28.717 0.0057605 30.4906 0.549317 31.9955 1.56144C33.5875 2.68119 34.8795 4.17204 35.7584 5.90356C36.6372 7.63508 37.0762 9.5545 37.0369 11.4939V11.4917Z" fill="#4587FF"/>
<path d="M56.5777 18.735C55.0619 23.2704 51.09 26.2231 47.0146 26.2231C46.1275 26.2238 45.2461 26.0823 44.4043 25.8039C39.5347 24.1928 37.0683 18.4006 38.9092 12.8924C39.7295 10.3466 41.4325 8.17385 43.7143 6.76207C44.7925 6.06614 46.0143 5.6205 47.2891 5.45819C48.5639 5.29588 49.8591 5.42105 51.0787 5.82443C52.2983 6.2278 53.411 6.89904 54.3345 7.78842C55.2579 8.67779 55.9684 9.76251 56.4132 10.9622C57.393 13.4518 57.4506 16.2071 56.5755 18.735H56.5777Z" fill="#E46053"/>
<path d="M66.8725 37.4848C65.9486 38.7711 64.7365 39.826 63.3322 40.5659C61.9279 41.3059 60.3698 41.7108 58.7812 41.7484C57.0703 41.764 55.4005 41.2277 54.0216 40.2198C50.1738 37.3869 49.6695 31.545 52.8971 27.1988C56.1247 22.8527 61.8921 21.6279 65.7472 24.4608C69.5973 27.2982 70.1016 33.1393 66.8725 37.4848Z" fill="#E46053"/>
<path d="M31.9954 21.4197V1.5614C33.5874 2.68115 34.8793 4.172 35.7582 5.90352C36.6371 7.63504 37.0761 9.55446 37.0368 11.4938C37.0755 13.4324 36.6362 15.3509 35.7573 17.0815C34.8785 18.8121 33.5868 20.3021 31.9954 21.4212V21.4197Z" fill="#E46053"/>
<path d="M53.6225 43.7056C54.5434 45.135 55.105 46.7639 55.26 48.4547C55.415 50.1456 55.1587 51.8487 54.5129 53.4202C53.8671 54.9918 52.8506 56.3856 51.5494 57.4841C50.2481 58.5825 48.7003 59.3532 47.0366 59.7312C46.256 59.9091 45.4577 59.999 44.6569 59.9992C43.1873 59.9987 41.7339 59.693 40.3899 59.1016C37.7442 57.9452 34.8858 57.3484 31.9961 57.3489V24.3972C34.8145 24.3908 37.5888 25.0928 40.0616 26.4381C42.5345 27.7834 44.6256 29.7285 46.1411 32.0927L53.6225 43.7056Z" fill="#E46053"/>
</svg>
